<svg width="22" height="22" viewBox="0 0 22 22" fill="none" xmlns="http://www.w3.org/2000/svg">
<path d="M7.92296 7.92308C9.83472 7.92308 11.3845 6.37329 11.3845 4.46154C11.3845 2.54978 9.83472 1 7.92296 1C6.01121 1 4.46143 2.54978 4.46143 4.46154C4.46143 6.37329 6.01121 7.92308 7.92296 7.92308Z" stroke="#2E4E69" stroke-width="2" stroke-linecap="round" stroke-linejoin="round"/>
<path d="M5.61538 19.4615H1V17.1538C1.01225 15.9812 1.3215 14.8308 1.89888 13.8101C2.47626 12.7894 3.30292 11.9317 4.30165 11.3171C5.30038 10.7025 6.4386 10.3511 7.60997 10.2956C8.78135 10.2402 9.94767 10.4825 11 11" stroke="#2E4E69" stroke-width="2" stroke-linecap="round" stroke-linejoin="round"/>
<path d="M21.0001 13.3077L13.754 20.5539L10.4771 21L10.9386 17.7231L18.1694 10.4769L21.0001 13.3077Z" stroke="#2E4E69" stroke-width="2" stroke-linecap="round" stroke-linejoin="round"/>
</svg>
