<svg width="34" height="34" viewBox="0 0 34 34" fill="none" xmlns="http://www.w3.org/2000/svg">
<g clip-path="url(#clip0_1851_28)" filter="url(#filter0_d_1851_28)">
<path d="M19.7858 6.49993V4.64279C19.7858 4.15024 19.5902 3.67787 19.2419 3.32959C18.8936 2.98131 18.4212 2.78564 17.9287 2.78564H16.0715" stroke="#2E4E69" stroke-width="1.85714" stroke-linecap="round" stroke-linejoin="round"/>
<path d="M11.4285 19.4999H6.78561C6.29306 19.4999 5.82069 19.3043 5.47241 18.956C5.12413 18.6077 4.92847 18.1353 4.92847 17.6428V4.64279C4.92847 4.15024 5.12413 3.67787 5.47241 3.32959C5.82069 2.98131 6.29306 2.78564 6.78561 2.78564H8.64275" stroke="#2E4E69" stroke-width="1.85714" stroke-linecap="round" stroke-linejoin="round"/>
<path d="M27.2144 10.2144H17.9287C16.903 10.2144 16.0715 11.0458 16.0715 12.0715V23.2144C16.0715 24.24 16.903 25.0715 17.9287 25.0715H27.2144C28.2401 25.0715 29.0715 24.24 29.0715 23.2144V12.0715C29.0715 11.0458 28.2401 10.2144 27.2144 10.2144Z" stroke="#2E4E69" stroke-width="1.85714" stroke-linecap="round" stroke-linejoin="round"/>
<path d="M16.5356 0.928467H8.17847L8.9399 3.93704C8.98628 4.1384 9.09982 4.31799 9.26183 4.44625C9.42385 4.57451 9.62469 4.64381 9.83132 4.64275H14.8828C15.0894 4.64381 15.2902 4.57451 15.4522 4.44625C15.6143 4.31799 15.7278 4.1384 15.7742 3.93704L16.5356 0.928467Z" stroke="#2E4E69" stroke-width="1.85714" stroke-linecap="round" stroke-linejoin="round"/>
<path d="M19.7856 15.7856H25.3571" stroke="#2E4E69" stroke-width="1.85714" stroke-linecap="round" stroke-linejoin="round"/>
<path d="M19.7856 19.5H25.3571" stroke="#2E4E69" stroke-width="1.85714" stroke-linecap="round" stroke-linejoin="round"/>
</g>
<defs>
<filter id="filter0_d_1851_28" x="0" y="0" width="34" height="34" filterUnits="userSpaceOnUse" color-interpolation-filters="sRGB">
<feFlood flood-opacity="0" result="BackgroundImageFix"/>
<feColorMatrix in="SourceAlpha" type="matrix" values="0 0 0 0 0 0 0 0 0 0 0 0 0 0 0 0 0 0 127 0" result="hardAlpha"/>
<feOffset dy="4"/>
<feGaussianBlur stdDeviation="2"/>
<feComposite in2="hardAlpha" operator="out"/>
<feColorMatrix type="matrix" values="0 0 0 0 0 0 0 0 0 0 0 0 0 0 0 0 0 0 0.25 0"/>
<feBlend mode="normal" in2="BackgroundImageFix" result="effect1_dropShadow_1851_28"/>
<feBlend mode="normal" in="SourceGraphic" in2="effect1_dropShadow_1851_28" result="shape"/>
</filter>
<clipPath id="clip0_1851_28">
<rect width="26" height="26" fill="white" transform="translate(4)"/>
</clipPath>
</defs>
</svg>
