<svg width="25" height="24" viewBox="0 0 25 24" fill="none" xmlns="http://www.w3.org/2000/svg">
<g id="Frame">
<path id="Vector" d="M10.1017 4.28731C10.1899 3.75573 10.6509 3.36539 11.1903 3.36539H13.7335C14.2729 3.36539 14.7339 3.75573 14.8221 4.28731L15.031 5.54368C15.0928 5.91048 15.338 6.21648 15.6636 6.39694C15.7362 6.43618 15.8078 6.47835 15.8794 6.5215C16.1972 6.71373 16.5855 6.77356 16.9337 6.64312L18.1273 6.19589C18.3719 6.1039 18.6412 6.10171 18.8873 6.18972C19.1334 6.27773 19.3402 6.45021 19.471 6.67646L20.742 8.88025C20.8725 9.10652 20.9185 9.37175 20.8718 9.62874C20.8252 9.88574 20.6888 10.1178 20.487 10.2837L19.5033 11.0948C19.216 11.3302 19.0738 11.696 19.0806 12.0678C19.0822 12.1511 19.0822 12.2345 19.0806 12.3178C19.0738 12.6886 19.216 13.0534 19.5024 13.2888L20.488 14.1009C20.9039 14.4442 21.0118 15.0365 20.743 15.5034L19.47 17.7072C19.3394 17.9334 19.1328 18.1059 18.8869 18.1941C18.6411 18.2823 18.3719 18.2804 18.1273 18.1887L16.9337 17.7415C16.5855 17.6111 16.1981 17.6709 15.8784 17.8631C15.8073 17.9064 15.7354 17.9482 15.6626 17.9887C15.338 18.1681 15.0928 18.4741 15.031 18.8409L14.8221 20.0963C14.7339 20.6289 14.2729 21.0192 13.7335 21.0192H11.1894C10.6499 21.0192 10.189 20.6289 10.1007 20.0973L9.8918 18.8409C9.83099 18.4741 9.5858 18.1681 9.26018 17.9877C9.18746 17.9476 9.11552 17.906 9.04441 17.8631C8.72566 17.6709 8.33826 17.6111 7.9891 17.7415L6.79551 18.1887C6.55103 18.2805 6.28194 18.2825 6.0361 18.1945C5.79025 18.1065 5.58358 17.9342 5.45283 17.7082L4.18078 15.5044C4.05028 15.2781 4.00428 15.0129 4.05098 14.7559C4.09767 14.4989 4.23403 14.2668 4.43578 14.1009L5.42047 13.2898C5.70685 13.0544 5.84907 12.6886 5.8422 12.3169C5.84067 12.2335 5.84067 12.1501 5.8422 12.0668C5.84907 11.696 5.70685 11.3312 5.42047 11.0958L4.43578 10.2837C4.23427 10.1179 4.09807 9.88597 4.05139 9.62919C4.0047 9.37242 4.05054 9.1074 4.18078 8.88123L5.45283 6.67744C5.58346 6.45102 5.79023 6.27833 6.03631 6.19014C6.28238 6.10194 6.55178 6.10398 6.79649 6.19589L7.9891 6.64312C8.33826 6.77356 8.72566 6.71373 9.04441 6.5215C9.11503 6.47835 9.1876 6.43618 9.26018 6.39596C9.5858 6.21648 9.83099 5.91048 9.8918 5.54368L10.1017 4.28731Z" stroke="#313131" stroke-width="2.61538" stroke-linecap="round" stroke-linejoin="round"/>
<path id="Vector_2" d="M15.4038 12.1923C15.4038 12.9727 15.0938 13.721 14.542 14.2728C13.9902 14.8246 13.2418 15.1346 12.4615 15.1346C11.6811 15.1346 10.9327 14.8246 10.3809 14.2728C9.82916 13.721 9.51917 12.9727 9.51917 12.1923C9.51917 11.412 9.82916 10.6636 10.3809 10.1118C10.9327 9.55999 11.6811 9.25 12.4615 9.25C13.2418 9.25 13.9902 9.55999 14.542 10.1118C15.0938 10.6636 15.4038 11.412 15.4038 12.1923Z" stroke="#313131" stroke-width="2.61538" stroke-linecap="round" stroke-linejoin="round"/>
</g>
</svg>
