<svg width="25" height="25" viewBox="0 0 25 25" fill="none" xmlns="http://www.w3.org/2000/svg">
<g id="Frame">
<path id="Vector" d="M16.1394 9.55771V5.87983C16.1394 5.29457 15.9069 4.73327 15.493 4.31943C15.0792 3.90559 14.5179 3.6731 13.9327 3.6731H8.04804C7.46278 3.6731 6.90149 3.90559 6.48765 4.31943C6.0738 4.73327 5.84131 5.29457 5.84131 5.87983V19.1202C5.84131 19.7055 6.0738 20.2668 6.48765 20.6806C6.90149 21.0944 7.46278 21.3269 8.04804 21.3269H13.9327C14.5179 21.3269 15.0792 21.0944 15.493 20.6806C15.9069 20.2668 16.1394 19.7055 16.1394 19.1202V15.4423M19.0817 15.4423L22.024 12.5M22.024 12.5L19.0817 9.55771M22.024 12.5H9.51919" stroke="#313131" stroke-width="2.61538" stroke-linecap="round" stroke-linejoin="round"/>
</g>
</svg>
