<svg width="15" height="19" viewBox="0 0 15 19" fill="none" xmlns="http://www.w3.org/2000/svg">
<path id="Vector" d="M10.8429 4.28125C10.8429 5.15149 10.4972 5.98609 9.88182 6.60144C9.26647 7.2168 8.43187 7.5625 7.56163 7.5625C6.69138 7.5625 5.85678 7.2168 5.24143 6.60144C4.62608 5.98609 4.28038 5.15149 4.28038 4.28125C4.28038 3.41101 4.62608 2.57641 5.24143 1.96106C5.85678 1.3457 6.69138 1 7.56163 1C8.43187 1 9.26647 1.3457 9.88182 1.96106C10.4972 2.57641 10.8429 3.41101 10.8429 4.28125V4.28125ZM1 16.6345C1.02812 14.9128 1.7318 13.2711 2.95928 12.0635C4.18676 10.8559 5.8397 10.1792 7.56163 10.1792C9.28355 10.1792 10.9365 10.8559 12.164 12.0635C13.3915 13.2711 14.0951 14.9128 14.1233 16.6345C12.0647 17.5784 9.82625 18.0656 7.56163 18.0625C5.22012 18.0625 2.99762 17.5515 1 16.6345Z" stroke="black" stroke-width="1.13" stroke-linecap="round" stroke-linejoin="round"/>
</svg>
