<svg width="23" height="25" viewBox="0 0 23 25" fill="none" xmlns="http://www.w3.org/2000/svg">
<path d="M1.0769 6.17578H21.7802" stroke="#2E4E69" stroke-width="1.72527" stroke-linecap="round" stroke-linejoin="round"/>
<path d="M3.66455 6.17578H19.192V21.7033C19.192 22.1608 19.0103 22.5997 18.6867 22.9232C18.3631 23.2468 17.9243 23.4285 17.4667 23.4285H5.38983C4.93225 23.4285 4.49342 23.2468 4.16987 22.9232C3.84632 22.5997 3.66455 22.1608 3.66455 21.7033V6.17578Z" stroke="#2E4E69" stroke-width="1.72527" stroke-linecap="round" stroke-linejoin="round"/>
<path d="M7.11548 6.17582V5.31319C7.11548 4.16926 7.5699 3.07218 8.37878 2.2633C9.18766 1.45442 10.2847 1 11.4287 1C12.5726 1 13.6697 1.45442 14.4785 2.2633C15.2874 3.07218 15.7419 4.16926 15.7419 5.31319V6.17582" stroke="#2E4E69" stroke-width="1.72527" stroke-linecap="round" stroke-linejoin="round"/>
<path d="M8.76221 9.7832V19.2722" stroke="#2E4E69" stroke-width="1.72527" stroke-linecap="round" stroke-linejoin="round"/>
<path d="M14.0164 9.62622V19.1152" stroke="#2E4E69" stroke-width="1.72527" stroke-linecap="round" stroke-linejoin="round"/>
</svg>
