<svg width="41" height="41" viewBox="0 0 41 41" fill="none" xmlns="http://www.w3.org/2000/svg">
<rect x="40.1758" y="40.0518" width="40" height="40" rx="6" transform="rotate(-180 40.1758 40.0518)" fill="#FFFEFE"/>
<path d="M32.2699 0.0443954C29.0554 -0.0288658 13.1978 0.00533676 4.97173 0.0287743C2.21731 0.0366249 0.000915527 2.26396 0.00376892 5.01839C0.00833893 9.4358 0.0184784 17.2405 0.0409431 30.1376C0.0409355 34.1148 -0.460587 36.6005 2.04704 38.5892C4.64774 40.7375 5.99967 40.578 10.5734 37.0979C15.5886 32.6235 15.5886 32.6235 24.6166 23.6747L24.6167 23.6747C30.0339 18.3041 30.1311 18.2005 36.308 11.6135L36.6527 11.2458C39.208 8.52093 40.3958 6.54709 39.8829 4.08941C39.7709 3.55246 39.4959 3.06488 39.1465 2.64204C37.4253 0.559063 36.2677 0.135506 32.2699 0.0443954Z" fill="#FFE1A8"/>
</svg>
