<svg width="40" height="40" viewBox="0 0 40 40" fill="none" xmlns="http://www.w3.org/2000/svg">
<rect width="40" height="40" rx="6" fill="#FFFEFE"/>
<path d="M8.21269 39.7378L34.9049 39.9583C37.6874 39.9812 39.9535 37.7285 39.9485 34.9459C39.9364 28.2266 39.9227 16.438 39.9592 9.8734C39.9592 5.89173 40.4591 3.40326 37.9596 1.41239C35.3673 -0.738332 34.0198 -0.578623 29.4609 2.90532L29.4609 2.90534C24.4619 7.38469 24.4619 7.38471 15.4632 16.3434C10.0635 21.72 9.96658 21.8238 3.80969 28.4181L3.46611 28.7861C0.649499 31.8028 -0.810946 34.2062 0.466136 36.7496C2.21296 39.7931 6.63149 39.798 7.72068 39.7505C7.88476 39.7434 8.04845 39.7364 8.21269 39.7378Z" fill="#FFE1A8"/>
</svg>
