<svg width="40" height="40" viewBox="0 0 40 40" fill="none" xmlns="http://www.w3.org/2000/svg">
<rect x="40" y="40.004" width="40" height="40" rx="6" transform="rotate(180 40 40.004)" fill="#FAB192"/>
<path d="M39.5359 3.27906C37.7061 0.0518911 32.903 -0.0102469 32.1384 0.000796584C32.0673 0.00182273 32.009 0.00330283 31.9379 0.00330282L9.13642 0.00330464C3.69258 0.00330417 2.00095 1.94964 1.70314 2.31106C1.40531 2.67248 0.216655 3.81105 0.216655 8.31106C-0.181444 14.5987 0.101827 24.1959 0.0469483 30.3111C-0.00358165 35.9412 -0.00669455 37.1688 2.05905 38.9512C2.34283 39.1961 2.66171 39.3999 3.0096 39.5394C5.73045 40.6305 8.05715 39.7544 10.6687 37.3858C15.6457 32.8717 15.6457 32.8717 24.6048 23.8436L24.6049 23.8435C29.9809 18.4252 30.0773 18.3206 36.2072 11.6751L36.5492 11.3043C39.3534 8.26419 40.8074 5.84217 39.5359 3.27906Z" fill="#FAB192"/>
</svg>
