<svg width="40" height="40" viewBox="0 0 40 40" fill="none" xmlns="http://www.w3.org/2000/svg">
<rect width="40" height="40" rx="6" fill="#FFFEFE"/>
<path d="M0.464061 36.7249C2.29394 39.9521 7.09702 40.0142 7.86156 40.0032C7.93266 40.0021 7.99095 40.0007 8.06206 40.0007L30.8636 40.0007C36.3074 40.0007 37.999 38.0543 38.2969 37.6929C38.5947 37.3315 39.7833 36.1929 39.7833 31.6929C40.1814 25.4052 39.8982 15.8081 39.9531 9.69291C40.0036 4.06274 40.0067 2.83518 37.941 1.05276C37.6572 0.807901 37.3383 0.604102 36.9904 0.464586C34.2695 -0.626569 31.9429 0.249555 29.3313 2.61819C24.3543 7.13228 24.3543 7.1323 15.3952 16.1604L15.3951 16.1605C10.0191 21.5788 9.9227 21.6833 3.79284 28.3289L3.45083 28.6997C0.646617 31.7398 -0.807402 34.1618 0.464061 36.7249Z" fill="#9AB0FE"/>
</svg>
