<svg width="516" height="65" viewBox="0 0 516 65" fill="none" xmlns="http://www.w3.org/2000/svg">
<rect x="0.5" y="0.750488" width="515" height="63" rx="3.5" fill="white"/>
<rect x="0.5" y="0.750488" width="515" height="63" rx="3.5" stroke="#E1E1E1"/>
<path d="M32.424 32.7165C33.036 32.9805 33.522 33.3825 33.882 33.9225C34.254 34.4505 34.44 35.0565 34.44 35.7405C34.44 36.7125 34.098 37.5405 33.414 38.2245C32.73 38.9085 31.902 39.2505 30.93 39.2505H25.44V26.6505H30.516C31.452 26.6505 32.25 26.9865 32.91 27.6585C33.57 28.3185 33.9 29.1105 33.9 30.0345C33.9 31.2105 33.408 32.1045 32.424 32.7165ZM30.516 27.8385H26.7V32.2305H30.516C31.104 32.2305 31.602 32.0205 32.01 31.6005C32.43 31.1685 32.64 30.6465 32.64 30.0345C32.64 29.4345 32.43 28.9185 32.01 28.4865C31.602 28.0545 31.104 27.8385 30.516 27.8385ZM30.93 38.0625C31.554 38.0625 32.082 37.8405 32.514 37.3965C32.958 36.9405 33.18 36.3885 33.18 35.7405C33.18 35.1045 32.958 34.5585 32.514 34.1025C32.082 33.6465 31.554 33.4185 30.93 33.4185H26.7V38.0625H30.93ZM43.9641 38.1165C43.0521 39.0165 41.9361 39.4665 40.6161 39.4665C39.2961 39.4665 38.1741 39.0165 37.2501 38.1165C36.3381 37.2045 35.8821 36.0825 35.8821 34.7505C35.8821 33.4185 36.3381 32.3025 37.2501 31.4025C38.1741 30.4905 39.2961 30.0345 40.6161 30.0345C41.9361 30.0345 43.0521 30.4905 43.9641 31.4025C44.8881 32.3025 45.3501 33.4185 45.3501 34.7505C45.3501 36.0825 44.8881 37.2045 43.9641 38.1165ZM38.0961 37.2885C38.7801 37.9725 39.6201 38.3145 40.6161 38.3145C41.6121 38.3145 42.4521 37.9725 43.1361 37.2885C43.8201 36.5925 44.1621 35.7465 44.1621 34.7505C44.1621 33.7545 43.8201 32.9145 43.1361 32.2305C42.4521 31.5345 41.6121 31.1865 40.6161 31.1865C39.6201 31.1865 38.7801 31.5345 38.0961 32.2305C37.4121 32.9145 37.0701 33.7545 37.0701 34.7505C37.0701 35.7465 37.4121 36.5925 38.0961 37.2885ZM48.7781 28.8105V27.7665H53.4581V28.8105H48.7781ZM53.8901 30.2505H54.8981V39.2505H53.7101V32.3205L48.3461 39.2505H47.3381V30.2505H48.5261V37.1805L53.8901 30.2505ZM63.8904 30.2505V31.4025H60.7044V39.2505H59.5164V31.4025H56.3304V30.2505H63.8904ZM71.8901 30.2505H72.8981V39.2505H71.7101V32.3205L66.3461 39.2505H65.3381V30.2505H66.5261V37.1805L71.8901 30.2505ZM85.6344 34.6245C86.6184 34.9845 87.1104 35.6865 87.1104 36.7305C87.1104 37.4625 86.8644 38.0685 86.3724 38.5485C85.8924 39.0165 85.1964 39.2505 84.2844 39.2505H79.9104V30.2505H83.9244C84.8004 30.2505 85.4784 30.4785 85.9584 30.9345C86.4384 31.3785 86.6784 31.9545 86.6784 32.6625C86.6784 33.5625 86.3304 34.2165 85.6344 34.6245ZM83.9244 31.4025H81.0984V34.1385H83.9244C84.9684 34.1385 85.4904 33.6705 85.4904 32.7345C85.4904 32.3145 85.3524 31.9905 85.0764 31.7625C84.8124 31.5225 84.4284 31.4025 83.9244 31.4025ZM84.2844 38.0985C84.8124 38.0985 85.2144 37.9725 85.4904 37.7205C85.7784 37.4685 85.9224 37.1145 85.9224 36.6585C85.9224 36.2385 85.7784 35.9085 85.4904 35.6685C85.2144 35.4165 84.8124 35.2905 84.2844 35.2905H81.0984V38.0985H84.2844ZM100.682 39.2505H99.0984L94.5984 34.9125V39.2505H93.4104V30.2505H94.5984V34.2285L98.8824 30.2505H100.502L95.8584 34.5705L100.682 39.2505ZM109.148 30.2505H110.336V39.2505H109.148V37.4865C108.32 38.8065 107.108 39.4665 105.512 39.4665C104.228 39.4665 103.13 39.0105 102.218 38.0985C101.318 37.1865 100.868 36.0705 100.868 34.7505C100.868 33.4305 101.318 32.3145 102.218 31.4025C103.13 30.4905 104.228 30.0345 105.512 30.0345C107.108 30.0345 108.32 30.6945 109.148 32.0145V30.2505ZM103.082 37.2885C103.766 37.9725 104.606 38.3145 105.602 38.3145C106.598 38.3145 107.438 37.9725 108.122 37.2885C108.806 36.5925 109.148 35.7465 109.148 34.7505C109.148 33.7545 108.806 32.9145 108.122 32.2305C107.438 31.5345 106.598 31.1865 105.602 31.1865C104.606 31.1865 103.766 31.5345 103.082 32.2305C102.398 32.9145 102.056 33.7545 102.056 34.7505C102.056 35.7465 102.398 36.5925 103.082 37.2885ZM116.848 39.4665C115.552 39.4665 114.472 39.0405 113.608 38.1885C112.744 37.3245 112.312 36.2085 112.312 34.8405C112.312 33.3045 112.54 32.1285 112.996 31.3125C113.452 30.4845 114.376 29.7345 115.768 29.0625C116.032 28.9305 116.38 28.7745 116.812 28.5945C117.256 28.4145 117.586 28.2705 117.802 28.1625C118.03 28.0545 118.276 27.9165 118.54 27.7485C118.804 27.5685 119.002 27.3705 119.134 27.1545C119.266 26.9385 119.35 26.6805 119.386 26.3805L120.322 26.9205C120.274 27.2085 120.178 27.4785 120.034 27.7305C119.89 27.9825 119.74 28.1865 119.584 28.3425C119.44 28.4985 119.206 28.6725 118.882 28.8645C118.57 29.0445 118.324 29.1765 118.144 29.2605C117.976 29.3325 117.676 29.4585 117.244 29.6385C116.824 29.8185 116.542 29.9385 116.398 29.9985C115.558 30.3585 114.94 30.7365 114.544 31.1325C114.148 31.5165 113.866 32.0205 113.698 32.6445C114.106 32.1045 114.622 31.7085 115.246 31.4565C115.882 31.1925 116.5 31.0605 117.1 31.0605C118.3 31.0605 119.29 31.4565 120.07 32.2485C120.862 33.0285 121.258 34.0305 121.258 35.2545C121.258 36.4665 120.838 37.4745 119.998 38.2785C119.17 39.0705 118.12 39.4665 116.848 39.4665ZM116.848 38.2785C117.784 38.2785 118.552 37.9965 119.152 37.4325C119.764 36.8565 120.07 36.1305 120.07 35.2545C120.07 34.3665 119.782 33.6405 119.206 33.0765C118.642 32.5005 117.886 32.2125 116.938 32.2125C116.086 32.2125 115.312 32.4825 114.616 33.0225C113.92 33.5505 113.572 34.2585 113.572 35.1465C113.572 36.0585 113.884 36.8085 114.508 37.3965C115.144 37.9845 115.924 38.2785 116.848 38.2785ZM129.617 30.2505H130.625V39.2505H129.437V32.3205L124.073 39.2505H123.065V30.2505H124.253V37.1805L129.617 30.2505ZM139.509 30.2505H140.697V39.2505H139.509V35.3265H134.325V39.2505H133.137V30.2505H134.325V34.1745H139.509V30.2505ZM147.367 30.0345C148.699 30.0345 149.773 30.5085 150.589 31.4565C151.417 32.3925 151.831 33.5025 151.831 34.7865C151.831 34.9185 151.819 35.1045 151.795 35.3445H143.893C144.013 36.2565 144.397 36.9825 145.045 37.5225C145.705 38.0505 146.515 38.3145 147.475 38.3145C148.159 38.3145 148.747 38.1765 149.239 37.9005C149.743 37.6125 150.121 37.2405 150.373 36.7845L151.417 37.3965C151.021 38.0325 150.481 38.5365 149.797 38.9085C149.113 39.2805 148.333 39.4665 147.457 39.4665C146.041 39.4665 144.889 39.0225 144.001 38.1345C143.113 37.2465 142.669 36.1185 142.669 34.7505C142.669 33.4065 143.107 32.2845 143.983 31.3845C144.859 30.4845 145.987 30.0345 147.367 30.0345ZM147.367 31.1865C146.431 31.1865 145.645 31.4685 145.009 32.0325C144.385 32.5845 144.013 33.3045 143.893 34.1925H150.607C150.487 33.2445 150.121 32.5065 149.509 31.9785C148.897 31.4505 148.183 31.1865 147.367 31.1865ZM159.849 30.2505V31.4025H156.663V39.2505H155.475V31.4025H152.289V30.2505H159.849Z" fill="#313131"/>
<path d="M480.078 39.5599C480.442 39.9372 481.047 39.9371 481.411 39.5596L487.982 32.7447C488.248 32.4689 488.248 32.0321 487.982 31.7563L481.411 24.9414C481.047 24.5639 480.442 24.5638 480.078 24.9411C479.732 25.2997 479.732 25.8678 480.078 26.2264L485.887 32.2505L480.078 38.2746C479.732 38.6332 479.732 39.2013 480.078 39.5599Z" fill="#313131"/>
</svg>
