<svg width="520" height="69" viewBox="0 0 520 69" fill="none" xmlns="http://www.w3.org/2000/svg">
<g filter="url(#filter0_d_187_2747)">
<rect x="2" y="2.25049" width="516" height="64" rx="4" fill="white"/>
<path d="M33.254 34.7345C33.95 34.9985 34.49 35.4005 34.874 35.9405C35.258 36.4805 35.45 37.1165 35.45 37.8485C35.45 38.9045 35.054 39.7745 34.262 40.4585C33.482 41.1305 32.426 41.4665 31.094 41.4665C29.894 41.4665 28.934 41.1965 28.214 40.6565C27.494 40.1165 26.996 39.4385 26.72 38.6225L27.8 38.0105C27.956 38.6465 28.292 39.1865 28.808 39.6305C29.336 40.0625 30.098 40.2785 31.094 40.2785C32.078 40.2785 32.84 40.0565 33.38 39.6125C33.92 39.1565 34.19 38.5685 34.19 37.8485C34.19 37.1285 33.938 36.5465 33.434 36.1025C32.942 35.6465 32.258 35.4185 31.382 35.4185H29.942V34.2305H30.932C31.784 34.2305 32.462 34.0145 32.966 33.5825C33.47 33.1505 33.722 32.5925 33.722 31.9085C33.722 31.2365 33.476 30.6905 32.984 30.2705C32.504 29.8385 31.844 29.6225 31.004 29.6225C29.456 29.6225 28.436 30.2825 27.944 31.6025L26.9 30.9905C27.212 30.2225 27.704 29.6045 28.376 29.1365C29.06 28.6685 29.936 28.4345 31.004 28.4345C32.192 28.4345 33.152 28.7705 33.884 29.4425C34.616 30.1025 34.982 30.9305 34.982 31.9265C34.982 33.1865 34.406 34.1225 33.254 34.7345ZM45.1777 32.2505H46.3657V41.2505H45.1777V39.4865C44.3497 40.8065 43.1377 41.4665 41.5417 41.4665C40.2577 41.4665 39.1597 41.0105 38.2477 40.0985C37.3477 39.1865 36.8977 38.0705 36.8977 36.7505C36.8977 35.4305 37.3477 34.3145 38.2477 33.4025C39.1597 32.4905 40.2577 32.0345 41.5417 32.0345C43.1377 32.0345 44.3497 32.6945 45.1777 34.0145V32.2505ZM39.1117 39.2885C39.7957 39.9725 40.6357 40.3145 41.6317 40.3145C42.6277 40.3145 43.4677 39.9725 44.1517 39.2885C44.8357 38.5925 45.1777 37.7465 45.1777 36.7505C45.1777 35.7545 44.8357 34.9145 44.1517 34.2305C43.4677 33.5345 42.6277 33.1865 41.6317 33.1865C40.6357 33.1865 39.7957 33.5345 39.1117 34.2305C38.4277 34.9145 38.0857 35.7545 38.0857 36.7505C38.0857 37.7465 38.4277 38.5925 39.1117 39.2885ZM53.7051 32.0345C54.9891 32.0345 56.0811 32.4905 56.9811 33.4025C57.8931 34.3145 58.3491 35.4305 58.3491 36.7505C58.3491 38.0705 57.8931 39.1865 56.9811 40.0985C56.0811 41.0105 54.9891 41.4665 53.7051 41.4665C52.1091 41.4665 50.8971 40.8065 50.0691 39.4865V44.8505H48.8811V32.2505H50.0691V34.0145C50.8971 32.6945 52.1091 32.0345 53.7051 32.0345ZM51.0951 39.2885C51.7791 39.9725 52.6191 40.3145 53.6151 40.3145C54.6111 40.3145 55.4511 39.9725 56.1351 39.2885C56.8191 38.5925 57.1611 37.7465 57.1611 36.7505C57.1611 35.7545 56.8191 34.9145 56.1351 34.2305C55.4511 33.5345 54.6111 33.1865 53.6151 33.1865C52.6191 33.1865 51.7791 33.5345 51.0951 34.2305C50.4111 34.9145 50.0691 35.7545 50.0691 36.7505C50.0691 37.7465 50.4111 38.5925 51.0951 39.2885ZM64.4825 32.0345C65.8145 32.0345 66.8885 32.5085 67.7045 33.4565C68.5325 34.3925 68.9465 35.5025 68.9465 36.7865C68.9465 36.9185 68.9345 37.1045 68.9105 37.3445H61.0085C61.1285 38.2565 61.5125 38.9825 62.1605 39.5225C62.8205 40.0505 63.6305 40.3145 64.5905 40.3145C65.2745 40.3145 65.8625 40.1765 66.3545 39.9005C66.8585 39.6125 67.2365 39.2405 67.4885 38.7845L68.5325 39.3965C68.1365 40.0325 67.5965 40.5365 66.9125 40.9085C66.2285 41.2805 65.4485 41.4665 64.5725 41.4665C63.1565 41.4665 62.0045 41.0225 61.1165 40.1345C60.2285 39.2465 59.7845 38.1185 59.7845 36.7505C59.7845 35.4065 60.2225 34.2845 61.0985 33.3845C61.9745 32.4845 63.1025 32.0345 64.4825 32.0345ZM64.4825 33.1865C63.5465 33.1865 62.7605 33.4685 62.1245 34.0325C61.5005 34.5845 61.1285 35.3045 61.0085 36.1925H67.7225C67.6025 35.2445 67.2365 34.5065 66.6245 33.9785C66.0125 33.4505 65.2985 33.1865 64.4825 33.1865ZM76.5962 32.2505V33.4025H72.0242V41.2505H70.8362V32.2505H76.5962ZM84.5952 32.2505H85.6032V41.2505H84.4152V34.3205L79.0512 41.2505H78.0432V32.2505H79.2312V39.1805L84.5952 32.2505ZM92.3095 41.4665C90.9535 41.4665 89.8255 41.0165 88.9255 40.1165C88.0255 39.2045 87.5755 38.0825 87.5755 36.7505C87.5755 35.4185 88.0255 34.3025 88.9255 33.4025C89.8255 32.4905 90.9535 32.0345 92.3095 32.0345C93.1975 32.0345 93.9955 32.2505 94.7035 32.6825C95.4115 33.1025 95.9275 33.6725 96.2515 34.3925L95.2795 34.9505C95.0395 34.4105 94.6495 33.9845 94.1095 33.6725C93.5815 33.3485 92.9815 33.1865 92.3095 33.1865C91.3135 33.1865 90.4735 33.5345 89.7895 34.2305C89.1055 34.9145 88.7635 35.7545 88.7635 36.7505C88.7635 37.7465 89.1055 38.5925 89.7895 39.2885C90.4735 39.9725 91.3135 40.3145 92.3095 40.3145C92.9815 40.3145 93.5815 40.1585 94.1095 39.8465C94.6375 39.5225 95.0515 39.0905 95.3515 38.5505L96.3415 39.1265C95.9695 39.8465 95.4235 40.4165 94.7035 40.8365C93.9835 41.2565 93.1855 41.4665 92.3095 41.4665ZM104.351 32.2505V33.4025H101.165V41.2505H99.9773V33.4025H96.7913V32.2505H104.351ZM110.623 32.0345C111.907 32.0345 112.999 32.4905 113.899 33.4025C114.811 34.3145 115.267 35.4305 115.267 36.7505C115.267 38.0705 114.811 39.1865 113.899 40.0985C112.999 41.0105 111.907 41.4665 110.623 41.4665C109.027 41.4665 107.815 40.8065 106.987 39.4865V44.8505H105.799V32.2505H106.987V34.0145C107.815 32.6945 109.027 32.0345 110.623 32.0345ZM108.013 39.2885C108.697 39.9725 109.537 40.3145 110.533 40.3145C111.529 40.3145 112.369 39.9725 113.053 39.2885C113.737 38.5925 114.079 37.7465 114.079 36.7505C114.079 35.7545 113.737 34.9145 113.053 34.2305C112.369 33.5345 111.529 33.1865 110.533 33.1865C109.537 33.1865 108.697 33.5345 108.013 34.2305C107.329 34.9145 106.987 35.7545 106.987 36.7505C106.987 37.7465 107.329 38.5925 108.013 39.2885ZM123.794 32.2505H124.802V41.2505H123.614V34.3205L118.25 41.2505H117.242V32.2505H118.43V39.1805L123.794 32.2505ZM132.139 32.0345C133.423 32.0345 134.515 32.4905 135.415 33.4025C136.327 34.3145 136.783 35.4305 136.783 36.7505C136.783 38.0705 136.327 39.1865 135.415 40.0985C134.515 41.0105 133.423 41.4665 132.139 41.4665C130.543 41.4665 129.331 40.8065 128.503 39.4865V44.8505H127.315V32.2505H128.503V34.0145C129.331 32.6945 130.543 32.0345 132.139 32.0345ZM129.529 39.2885C130.213 39.9725 131.053 40.3145 132.049 40.3145C133.045 40.3145 133.885 39.9725 134.569 39.2885C135.253 38.5925 135.595 37.7465 135.595 36.7505C135.595 35.7545 135.253 34.9145 134.569 34.2305C133.885 33.5345 133.045 33.1865 132.049 33.1865C131.053 33.1865 130.213 33.5345 129.529 34.2305C128.845 34.9145 128.503 35.7545 128.503 36.7505C128.503 37.7465 128.845 38.5925 129.529 39.2885ZM146.3 40.1165C145.388 41.0165 144.272 41.4665 142.952 41.4665C141.632 41.4665 140.51 41.0165 139.586 40.1165C138.674 39.2045 138.218 38.0825 138.218 36.7505C138.218 35.4185 138.674 34.3025 139.586 33.4025C140.51 32.4905 141.632 32.0345 142.952 32.0345C144.272 32.0345 145.388 32.4905 146.3 33.4025C147.224 34.3025 147.686 35.4185 147.686 36.7505C147.686 38.0825 147.224 39.2045 146.3 40.1165ZM140.432 39.2885C141.116 39.9725 141.956 40.3145 142.952 40.3145C143.948 40.3145 144.788 39.9725 145.472 39.2885C146.156 38.5925 146.498 37.7465 146.498 36.7505C146.498 35.7545 146.156 34.9145 145.472 34.2305C144.788 33.5345 143.948 33.1865 142.952 33.1865C141.956 33.1865 141.116 33.5345 140.432 34.2305C139.748 34.9145 139.406 35.7545 139.406 36.7505C139.406 37.7465 139.748 38.5925 140.432 39.2885ZM155.398 36.6245C156.382 36.9845 156.874 37.6865 156.874 38.7305C156.874 39.4625 156.628 40.0685 156.136 40.5485C155.656 41.0165 154.96 41.2505 154.048 41.2505H149.674V32.2505H153.688C154.564 32.2505 155.242 32.4785 155.722 32.9345C156.202 33.3785 156.442 33.9545 156.442 34.6625C156.442 35.5625 156.094 36.2165 155.398 36.6245ZM153.688 33.4025H150.862V36.1385H153.688C154.732 36.1385 155.254 35.6705 155.254 34.7345C155.254 34.3145 155.116 33.9905 154.84 33.7625C154.576 33.5225 154.192 33.4025 153.688 33.4025ZM154.048 40.0985C154.576 40.0985 154.978 39.9725 155.254 39.7205C155.542 39.4685 155.686 39.1145 155.686 38.6585C155.686 38.2385 155.542 37.9085 155.254 37.6685C154.978 37.4165 154.576 37.2905 154.048 37.2905H150.862V40.0985H154.048ZM166.414 32.2505H167.602V41.2505H166.414V39.4865C165.586 40.8065 164.374 41.4665 162.778 41.4665C161.494 41.4665 160.396 41.0105 159.484 40.0985C158.584 39.1865 158.134 38.0705 158.134 36.7505C158.134 35.4305 158.584 34.3145 159.484 33.4025C160.396 32.4905 161.494 32.0345 162.778 32.0345C164.374 32.0345 165.586 32.6945 166.414 34.0145V32.2505ZM160.348 39.2885C161.032 39.9725 161.872 40.3145 162.868 40.3145C163.864 40.3145 164.704 39.9725 165.388 39.2885C166.072 38.5925 166.414 37.7465 166.414 36.7505C166.414 35.7545 166.072 34.9145 165.388 34.2305C164.704 33.5345 163.864 33.1865 162.868 33.1865C161.872 33.1865 161.032 33.5345 160.348 34.2305C159.664 34.9145 159.322 35.7545 159.322 36.7505C159.322 37.7465 159.664 38.5925 160.348 39.2885ZM176.597 32.2505V33.4025H173.411V41.2505H172.223V33.4025H169.037V32.2505H176.597ZM181.699 35.6705C182.539 35.6705 183.247 35.9345 183.823 36.4625C184.411 36.9785 184.705 37.6445 184.705 38.4605C184.705 39.2765 184.411 39.9485 183.823 40.4765C183.247 40.9925 182.539 41.2505 181.699 41.2505H178.045V32.2505H179.233V35.6705H181.699ZM181.699 40.0985C182.203 40.0985 182.629 39.9485 182.977 39.6485C183.337 39.3485 183.517 38.9525 183.517 38.4605C183.517 37.9685 183.337 37.5725 182.977 37.2725C182.629 36.9725 182.203 36.8225 181.699 36.8225H179.233V40.0985H181.699ZM190.606 41.4665C189.25 41.4665 188.122 41.0165 187.222 40.1165C186.322 39.2045 185.872 38.0825 185.872 36.7505C185.872 35.4185 186.322 34.3025 187.222 33.4025C188.122 32.4905 189.25 32.0345 190.606 32.0345C191.494 32.0345 192.292 32.2505 193 32.6825C193.708 33.1025 194.224 33.6725 194.548 34.3925L193.576 34.9505C193.336 34.4105 192.946 33.9845 192.406 33.6725C191.878 33.3485 191.278 33.1865 190.606 33.1865C189.61 33.1865 188.77 33.5345 188.086 34.2305C187.402 34.9145 187.06 35.7545 187.06 36.7505C187.06 37.7465 187.402 38.5925 188.086 39.2885C188.77 39.9725 189.61 40.3145 190.606 40.3145C191.278 40.3145 191.878 40.1585 192.406 39.8465C192.934 39.5225 193.348 39.0905 193.648 38.5505L194.638 39.1265C194.266 39.8465 193.72 40.4165 193 40.8365C192.28 41.2565 191.482 41.4665 190.606 41.4665ZM202.648 32.2505V41.2505H201.46V37.7945H199.912L197.14 41.2505H195.628L198.472 37.7585C197.752 37.6505 197.158 37.3505 196.69 36.8585C196.222 36.3665 195.988 35.7605 195.988 35.0405C195.988 34.2245 196.276 33.5585 196.852 33.0425C197.44 32.5145 198.154 32.2505 198.994 32.2505H202.648ZM198.994 36.6785H201.46V33.4025H198.994C198.49 33.4025 198.058 33.5525 197.698 33.8525C197.35 34.1525 197.176 34.5485 197.176 35.0405C197.176 35.5325 197.35 35.9285 197.698 36.2285C198.058 36.5285 198.49 36.6785 198.994 36.6785Z" fill="#313131"/>
<path d="M482.078 41.5599C482.442 41.9372 483.047 41.9371 483.411 41.5596L489.982 34.7447C490.248 34.4689 490.248 34.0321 489.982 33.7563L483.411 26.9413C483.047 26.5639 482.442 26.5638 482.078 26.9411C481.732 27.2997 481.732 27.8678 482.078 28.2264L487.887 34.2505L482.078 40.2746C481.732 40.6332 481.732 41.2013 482.078 41.5599Z" fill="#313131"/>
</g>
<defs>
<filter id="filter0_d_187_2747" x="0" y="0.250488" width="520" height="68" filterUnits="userSpaceOnUse" color-interpolation-filters="sRGB">
<feFlood flood-opacity="0" result="BackgroundImageFix"/>
<feColorMatrix in="SourceAlpha" type="matrix" values="0 0 0 0 0 0 0 0 0 0 0 0 0 0 0 0 0 0 127 0" result="hardAlpha"/>
<feMorphology radius="2" operator="dilate" in="SourceAlpha" result="effect1_dropShadow_187_2747"/>
<feOffset/>
<feComposite in2="hardAlpha" operator="out"/>
<feColorMatrix type="matrix" values="0 0 0 0 0.458824 0 0 0 0 0.639216 0 0 0 0 0.811765 0 0 0 1 0"/>
<feBlend mode="normal" in2="BackgroundImageFix" result="effect1_dropShadow_187_2747"/>
<feBlend mode="normal" in="SourceGraphic" in2="effect1_dropShadow_187_2747" result="shape"/>
</filter>
</defs>
</svg>
